<svg width="402" height="966" viewBox="0 0 402 966" fill="none" xmlns="http://www.w3.org/2000/svg">
<path d="M-88 964.479H191.187C191.187 964.479 171.701 960.828 171.701 953.264C171.701 945.699 177.557 936.397 178.126 922.456C178.674 908.492 171.701 894.551 177.284 881.752C182.845 868.954 202.352 810.241 203.469 789.307C204.585 768.373 207.935 742.204 222.955 734.662C237.996 727.097 250.804 706.757 254.153 674.783C257.503 642.81 272.607 633.003 269.826 595.202C267.046 557.401 275.767 530.156 274.208 507.462C272.333 479.953 253.606 483.493 248.592 507.33C243.578 531.167 271.996 582.91 244.695 642.216C217.393 701.523 199.571 702.689 180.085 743.964C160.599 785.239 131.065 828.273 138.859 859.675C146.654 891.076 184.004 874.408 178.484 857.08C170.648 832.561 170.732 889.053 170.732 889.053C128.79 885.865 131.065 853.847 131.065 853.847C131.065 853.847 122.154 893.957 124.387 915.485C126.62 936.991 133.593 960.586 133.593 960.586C91.5452 959.773 56.7442 935.452 62.8744 905.216C69.0046 874.98 116.024 784.645 121.585 782.314C127.147 779.983 53.5843 922.918 73.0703 949.086C92.5563 975.254 127.884 951.966 105.786 913.66C83.6875 875.353 72.5437 850.923 85.9205 801.511C99.2974 752.1 108.756 708.472 98.7286 692.793C88.7013 677.092 113.77 676.521 124.914 657.323C136.058 638.126 166.687 649.187 157.229 679.995C147.77 710.803 129.927 772.441 129.927 772.441C129.927 772.441 154.427 763.711 166.14 748.604C177.831 733.496 188.996 687.23 192.325 668.956C197.928 638.126 189.755 593.223 182.487 538.204C175.219 483.185 190.682 466.011 200.393 499.678C209.135 530.002 205.512 600.875 147.77 626.516C115.35 640.919 109.346 663.151 109.346 663.151C109.346 663.151 103.784 621.876 112.127 604.416C120.469 586.956 117.751 510.409 120.532 487.166C123.313 463.922 151.12 431.157 151.12 431.157C151.12 431.157 245.811 437.556 247.475 431.157C249.14 424.758 151.12 432.323 150.003 424.758C148.887 417.194 246.359 428.255 246.928 420.69C247.475 413.125 147.791 418.359 148.887 411.96C150.003 405.561 246.928 417.765 251.941 405.561C256.955 393.357 264.202 368.354 256.955 355.556C249.708 342.758 209.852 321.867 180.128 299.877C156.218 282.198 137.743 238.68 137.743 238.68C137.743 238.68 132.371 280.79 116.213 283.693C100.056 286.596 90.9764 260.691 97.6543 255.458C104.332 250.224 119.352 292.731 118.236 310.169C117.119 327.607 119.352 335.171 132.708 352.609C146.085 370.047 134.941 391.597 146.422 403.758L170.69 402.658C165.129 394.522 141.619 364.242 140.502 328.2C139.386 292.159 93.1883 237.206 93.1883 237.206L59.7356 256.689L19.0783 450.31C19.0783 450.31 25.2085 460.778 62.5163 460.778C99.8241 460.778 108.756 454.379 108.756 454.379C108.756 454.379 97.6122 488.683 61.9686 488.683C26.325 488.683 19.0783 457.875 19.0783 457.875L107.092 449.145L64.3279 267.926C64.3279 267.926 55.4381 452.927 62.3477 453.587C69.2574 454.247 69.5523 258.69 69.5523 258.69L141.092 218.911L143.41 82.8371C143.41 82.8371 157.903 84.7942 159.083 81.5397C161.611 74.6568 167.446 51.3256 167.151 49.5224C166.055 42.4416 142.209 39.8468 137.743 44.5087C133.277 49.1705 155.017 45.6742 155.565 33.4698C156.112 21.2654 151.646 0.902697 146.064 2.04617C140.481 3.18965 139.386 35.185 139.386 35.185C139.386 35.185 164.433 43.5191 130.475 56.6911C102.9 67.3782 93.1462 125.871 87.5848 149.73C82.0233 173.567 91.9033 232.456 91.9033 232.456L131.17 218.229L119.921 197.932C119.921 197.932 120.469 174.733 118.236 157.295C116.003 139.857 117.688 109.621 121.585 103.222C125.482 96.8227 152.784 89.2581 152.784 89.2581L151.12 219.504L241.029 263.154L278.779 446.484L185.647 455.302C185.647 455.302 195.716 485.34 234.709 486.506C273.702 487.671 280.423 452.224 280.423 452.224C280.423 452.224 271.385 459.634 235.004 459.634C198.623 459.634 187.901 446.836 187.901 446.836L234.709 266.563C234.709 266.563 240.313 443.076 235.552 443.647C230.791 444.197 230.117 263.704 230.117 263.704L151.71 225.881L184.341 259.284L181.075 229.796C167.762 215.656 166.329 198.834 166.371 191.533C166.371 191.533 179.601 177.746 210.399 178.207C223.376 178.405 236.5 185.156 235.384 186.893C234.267 188.631 220.785 180.956 199.466 183.617C175.367 186.607 172.86 195.931 176.504 195.403C181.349 194.7 191.503 187.487 210.02 188.059C229.085 188.631 234.92 194.194 228.537 194.634C222.154 195.074 189.776 191.819 183.182 198.504C194.895 199.318 241.282 198.68 241.282 198.68C241.282 198.68 248.318 176.734 246.148 167.806C242.757 153.843 215.687 122.441 181.792 143.881C157.692 159.12 165.086 185.75 165.086 185.75C165.086 185.75 199.951 170.401 205.47 153.799C215.287 169.279 237.827 177.768 237.827 177.768C237.827 177.768 241.303 202.682 234.077 215.832C230.075 223.111 211.284 235.139 207.935 235.139C200.92 235.139 185.52 226.365 176.42 209.785C178.063 224.892 193.378 240.197 206.776 240.351C218.678 240.483 228.242 229.268 228.242 229.268L220.764 272.346C220.764 272.346 237.469 285.144 256.976 291.543C276.462 297.942 288.238 317.293 294.916 354.5C300.14 383.593 333.024 451.762 351.625 487.825L354.259 496.093L354.87 485.978L359.104 480.283C347.391 468.584 354.217 454.225 363.317 448.925C373.85 442.79 389.755 450.706 386.553 468.1C384.32 480.173 372.017 484.395 372.017 484.395L374.356 492.113L366.603 515.994C372.523 536.335 365.339 559.996 349.287 572.025C349.287 572.025 343.979 560.282 334.815 566.571C328.2 571.101 322.597 560.964 330.054 554.916C335.51 550.496 338.206 561.799 330.96 582.734C323.713 603.668 292.809 598.896 287.796 594.256C282.782 589.595 290.345 568.242 297.023 571.145C303.7 574.048 305.449 585.768 337.743 596.807C370.058 607.846 369.489 596.235 380.633 599.71C391.777 603.184 377.579 630.628 368.984 623.525C360.136 616.202 338.86 609.232 338.86 609.232C333.298 623.195 212.969 964.435 212.969 964.435L318.426 601.579C318.426 601.579 341.809 596.104 344.589 586.23C344.589 586.23 356.07 561.711 345.474 549.375C338.228 540.953 331.634 549.507 328.095 550.914C322.955 552.959 322.323 538.798 330.244 532.663C338.164 526.527 340.734 515.313 330.749 498.754C320.764 482.196 297.781 441.229 292.388 433.07C284.341 420.932 269.489 374.445 269.489 374.445C269.489 374.445 250.446 412.29 253.226 429.2C256.007 446.11 274.482 561.14 254.28 643.69C234.077 726.24 227.779 735.102 227.779 759.269C227.779 783.436 226.852 804.7 218.067 826.932C209.283 849.163 199.908 874.518 199.319 890.46C198.918 900.884 197.444 914.759 204.079 937.145C208.503 952.076 199.55 964.457 199.55 964.457H400.477" stroke="#DEDEDE" stroke-width="2.34433" stroke-linecap="round" stroke-linejoin="round"/>
</svg>
