<svg width="1922" height="635" viewBox="0 0 1922 635" fill="none" xmlns="http://www.w3.org/2000/svg">
<path d="M3 552.034C29.5179 552.38 55.9968 555.338 81.923 560.97C84.9643 561.631 87.9952 562.327 91.0183 563.061C173.699 583.13 251.405 629.758 336.475 628.367C347.392 628.188 347.465 618.56 347.143 610.061C346.972 605.555 346.458 600.775 347.774 596.381C350.003 588.949 355.888 590.179 362.708 589.634C393.665 587.158 424.748 586.26 455.799 586.945C468.382 587.223 480.97 587.822 493.553 587.347C498.945 587.145 509.587 587.571 512.989 582.619C514.461 580.475 514.567 577.706 514.593 575.106C514.676 566.173 514.396 557.238 513.755 548.326C513.285 541.814 512.167 532.461 504.839 530.344C498.099 528.395 490.395 532.454 483.718 533.11C470.445 534.413 457.102 534.678 443.774 534.8C434.479 534.885 418.076 538.407 412.276 528.465C410.512 525.441 410.097 521.821 410.053 518.32C409.897 506.143 413.994 495.742 420.31 485.607C426.191 476.171 435.346 468.71 440.395 458.833C446.392 447.102 443.476 431.869 443.364 418.913C443.089 387.042 442.816 355.167 442.541 323.295C442.541 286.695 441.913 250.082 441.597 213.485C441.436 194.851 441.278 176.22 441.117 157.586C440.995 143.629 440.32 130.941 428.845 121.49C412.365 107.917 389.851 109.977 369.818 108.052C344.828 105.651 319.839 103.253 294.85 100.853C283.068 99.7211 269.889 98.8283 258.754 103.663C248.62 108.065 245.535 113.457 245.852 124.529C246.368 142.599 242.535 162.899 237.395 180.167C228.945 208.548 214.881 234.654 204.524 262.264C193.112 292.69 181.746 323.153 171.89 354.129C163.07 381.854 206.683 403.173 227.466 408.971C246.879 414.385 268.534 413.632 287.895 406.934C304.69 401.123 331.488 387.387 332.165 366.672C332.466 357.448 326.298 347.659 322.95 339.189C318.866 328.86 314.877 318.494 310.949 308.106C301.729 283.713 292.872 259.183 284.031 234.648C280.398 224.566 277.17 214.411 273.83 204.3C271.791 198.126 267.683 187.141 260.461 185.423C254.251 183.951 248.008 190.66 245.042 195.027C237.535 206.08 235.505 219.931 230.57 232.121C223.096 250.575 216.106 269.227 209.608 288.047C202.012 310.042 194.357 331.86 187.351 354.023C186.515 356.665 185.675 359.483 186.386 362.164C189.834 375.142 214.593 375.122 224.866 375.794C242.486 376.946 260.168 376.264 277.741 374.738C286.271 373.998 311.535 375.316 315.765 365.701C316.536 363.952 315.949 361.936 315.36 360.116C309.677 342.643 302.608 326.085 296.409 308.835C289.011 288.252 281.613 267.667 274.214 247.085C268.485 231.147 261.131 215.018 256.797 198.658C253.286 185.397 253.797 170.965 253.439 157.296C253.216 148.82 256.888 119.725 246.713 118.422C212.709 114.067 239.307 86.553 259.649 83.867C286.136 80.3712 313.17 93.1474 339.527 95.317C368.032 97.6631 408.439 97.7202 433.552 81.6688C451.663 70.0942 437.484 43.8411 435.325 27.6989C434.624 22.4618 434.178 16.9859 435.984 12.0213C437.79 7.05663 442.448 2.75638 447.726 3.01071C453.407 3.2858 457.748 8.70459 458.801 14.2947C459.855 19.8821 458.42 25.602 457.078 31.1298C453.858 44.3991 447.796 64.2757 456.305 76.6237C463.252 86.7061 477.586 87.7027 488.488 90.2304C511.518 95.5661 535.381 97.2556 558.936 95.317C585.292 93.1474 612.327 80.3712 638.813 83.867C659.155 86.5504 685.754 114.067 651.749 118.422C641.572 119.725 645.246 148.82 645.023 157.296C644.665 170.965 645.176 185.397 641.665 198.658C637.332 215.021 629.975 231.147 624.248 247.085C616.85 267.667 609.452 288.252 602.053 308.835C595.854 326.085 588.785 342.64 583.102 360.116C582.513 361.93 581.929 363.947 582.698 365.701C586.286 373.886 599.31 373.676 606.683 374.055C624.04 374.945 641.626 377.037 659.013 376.323C670.116 375.869 708.332 376.256 712.077 362.164C712.788 359.486 711.947 356.667 711.112 354.025C704.105 331.862 696.45 310.044 688.855 288.05C682.354 269.23 675.363 250.578 667.89 232.121C663.333 220.87 656.999 190.605 644.211 186.793C624.666 180.967 620.119 218.859 616.097 230.024C606.703 256.1 597.315 282.182 587.514 308.108C583.588 318.497 579.597 328.862 575.512 339.191C572.162 347.664 565.994 357.451 566.297 366.677C566.962 386.951 588.669 398.917 605.318 405.133C627.904 413.565 652.624 414.922 675.716 407.448C695.721 400.973 735.089 380.904 726.572 354.132C716.717 323.158 705.351 292.693 693.938 262.267C683.582 234.656 669.517 208.551 661.068 180.17C655.925 162.899 652.094 142.599 652.611 124.531C652.927 113.46 649.839 108.067 639.709 103.666C628.574 98.8283 615.394 99.7237 603.613 100.855C578.623 103.256 553.634 105.654 528.645 108.054C502.571 110.559 476.611 114.638 450.508 116.746C433.812 118.093 424.133 99.1397 440.009 88.1958C448.557 82.302 456.603 86.8826 460.934 95.221C466.262 105.482 462.681 113.67 460.864 124.054C455.628 153.979 457.128 183.385 456.868 213.487C456.554 250.087 455.924 286.698 455.924 323.298C455.649 355.17 455.376 387.042 455.101 418.913C455 430.555 453.798 442.737 456.964 454.104C460.672 467.415 470.891 474.233 477.784 485.659C485.628 498.664 493.496 519.958 488.877 535.124C486.124 544.166 476.047 545.609 467.964 546.164C455.887 546.992 443.725 547.148 431.58 547.072C426.531 547.041 421.398 546.948 416.584 545.432C409.3 543.138 407.151 537.556 401.533 533.663C398.214 531.364 391.805 530.525 387.835 530.17C377.59 529.251 371.255 534.571 371.754 545.167C372.083 552.203 368.873 571.568 376.113 575.313C379.209 576.915 382.87 576.829 386.353 576.707C421.649 575.461 457.683 576.123 493.268 575.817C502.093 575.742 510.921 575.607 519.744 575.365C525.52 575.207 535.158 572.282 540.278 575.591C549.412 581.495 541.023 595.478 550.842 601.914C561.115 608.646 576.869 602.496 587.33 599.194C602.279 594.479 617.33 590.077 632.456 585.969C644.416 582.72 655.439 580.309 667.732 579.499C680.097 578.685 691.027 573.146 702.636 569.129C730.06 559.641 758.392 552.888 787.056 548.43C845.432 539.349 905.009 539.686 963.681 545.627C1063.62 555.746 1161.21 581.459 1259.5 602.215C1323.56 615.744 1387.54 625.406 1452.77 630.861C1513.18 635.914 1579.48 620.273 1638.06 606.295C1697.5 592.107 1753.47 569.708 1812.9 556.472C1848.03 548.65 1883.56 542.666 1919.31 538.521" stroke="#0F0F0F" stroke-width="4.76484" stroke-linecap="round" stroke-linejoin="round"/>
</svg>
