<svg width="1920" height="633" viewBox="0 0 1920 633" fill="none" xmlns="http://www.w3.org/2000/svg">
<path d="M1.84741 550.882C28.3653 551.227 54.8442 554.186 80.7704 559.817C83.8117 560.479 86.8426 561.175 89.8657 561.909C172.546 581.978 250.252 628.606 335.323 627.215C346.24 627.036 346.312 617.408 345.99 608.908C345.819 604.403 345.305 599.623 346.621 595.229C348.85 587.796 354.735 589.026 361.555 588.481C392.513 586.006 423.595 585.108 454.646 585.793C467.229 586.07 479.818 586.67 492.4 586.195C497.793 585.993 508.435 586.418 511.837 581.467C513.308 579.323 513.414 576.554 513.44 573.953C513.523 565.021 513.243 556.085 512.602 547.173C512.133 540.662 511.014 531.309 503.686 529.191C496.947 527.242 489.242 531.301 482.566 531.958C469.292 533.261 455.949 533.525 442.621 533.647C433.326 533.733 416.924 537.255 411.124 527.312C409.359 524.289 408.944 520.669 408.9 517.168C408.744 504.991 412.842 494.589 419.158 484.455C425.038 475.019 434.193 467.558 439.243 457.68C445.24 445.95 442.323 430.716 442.211 417.761C441.936 385.889 441.664 354.015 441.389 322.143C441.389 285.543 440.761 248.93 440.444 212.332C440.283 193.699 440.125 175.068 439.964 156.434C439.842 142.477 439.168 129.789 427.693 120.337C411.212 106.764 388.698 108.825 368.665 106.899C343.676 104.499 318.686 102.101 293.697 99.7003C281.916 98.5688 268.736 97.676 257.601 102.511C247.468 106.912 244.382 112.305 244.699 123.376C245.215 141.447 241.383 161.746 236.242 179.015C227.793 207.396 213.728 233.501 203.372 261.112C191.959 291.538 180.593 322 170.738 352.977C161.917 380.701 205.531 402.021 226.314 407.819C245.727 413.232 267.381 412.48 286.742 405.781C303.537 399.971 330.335 386.234 331.012 365.519C331.313 356.296 325.145 346.507 321.798 338.036C317.713 327.707 313.725 317.342 309.796 306.953C300.576 282.561 291.72 258.031 282.879 233.496C279.246 223.414 276.017 213.259 272.678 203.148C270.638 196.974 266.53 185.988 259.309 184.27C253.099 182.799 246.855 189.507 243.889 193.875C236.382 204.928 234.353 218.779 229.417 230.968C221.944 249.423 214.953 268.075 208.455 286.895C200.86 308.889 193.205 330.707 186.198 352.87C185.363 355.512 184.522 358.331 185.233 361.012C188.682 373.99 213.44 373.969 223.714 374.642C241.333 375.794 259.015 375.111 276.588 373.585C285.118 372.846 310.382 374.164 314.612 364.549C315.383 362.8 314.796 360.783 314.207 358.964C308.524 341.49 301.456 324.933 295.256 307.683C287.858 287.1 280.46 266.515 273.062 245.932C267.332 229.995 259.978 213.866 255.644 197.506C252.133 184.244 252.645 169.812 252.287 156.143C252.063 147.667 255.735 118.573 245.56 117.27C211.556 112.915 238.154 85.4007 258.496 82.7146C284.983 79.2189 312.017 91.9951 338.374 94.1647C366.88 96.5108 407.286 96.5678 432.4 80.5165C450.51 68.9419 436.331 42.6888 434.172 26.5466C433.472 21.3095 433.025 15.8336 434.831 10.8689C436.637 5.90432 441.295 1.60406 446.574 1.85839C452.254 2.13349 456.595 7.55228 457.649 13.1424C458.702 18.7298 457.267 24.4497 455.926 29.9775C452.705 43.2467 446.644 63.1234 455.152 75.4714C462.099 85.5538 476.434 86.5504 487.335 89.0781C510.365 94.4138 534.229 96.1033 557.783 94.1647C584.14 91.9951 611.174 79.2189 637.661 82.7146C658.003 85.3981 684.601 112.915 650.597 117.27C640.419 118.573 644.094 147.667 643.871 156.143C643.512 169.812 644.024 184.244 640.513 197.506C636.179 213.869 628.822 229.995 623.095 245.932C615.697 266.515 608.299 287.1 600.901 307.683C594.701 324.933 587.633 341.488 581.95 358.964C581.361 360.778 580.777 362.794 581.545 364.549C585.134 372.734 598.158 372.524 605.53 372.903C622.888 373.793 640.474 375.885 657.86 375.171C668.964 374.717 707.18 375.104 710.924 361.012C711.635 358.333 710.794 355.515 709.959 352.873C702.953 330.71 695.297 308.892 687.702 286.898C681.202 268.077 674.211 249.425 666.737 230.968C662.181 219.718 655.846 189.453 643.058 185.641C623.513 179.814 618.967 217.707 614.945 228.871C605.551 254.948 596.162 281.03 586.361 306.956C582.435 317.345 578.444 327.71 574.36 338.039C571.009 346.512 564.841 356.299 565.145 365.525C565.809 385.798 587.516 397.765 604.165 403.98C626.752 412.412 651.471 413.77 674.564 406.295C694.568 399.82 733.936 379.752 725.42 352.979C715.564 322.006 704.198 291.54 692.786 261.114C682.429 233.504 668.364 207.399 659.915 179.018C654.772 161.746 650.942 141.447 651.458 123.379C651.775 112.308 648.687 106.915 638.556 102.513C627.421 97.676 614.241 98.5713 602.46 99.7029C577.471 102.103 552.481 104.501 527.492 106.902C501.418 109.406 475.458 113.486 449.355 115.593C432.659 116.94 422.98 97.9874 438.856 87.0434C447.404 81.1497 455.451 85.7303 459.782 94.0687C465.109 104.33 461.528 112.518 459.712 122.901C454.475 152.827 455.975 182.233 455.716 212.335C455.402 248.935 454.771 285.546 454.771 322.146C454.496 354.018 454.223 385.889 453.948 417.761C453.847 429.403 452.646 441.585 455.812 452.952C459.52 466.263 469.739 473.08 476.631 484.507C484.475 497.512 492.343 518.805 487.724 533.972C484.971 543.013 474.895 544.456 466.812 545.012C454.735 545.84 442.572 545.995 430.428 545.92C425.378 545.889 420.245 545.795 415.431 544.28C408.147 541.986 405.999 536.403 400.381 532.511C397.062 530.211 390.652 529.373 386.682 529.017C376.437 528.099 370.103 533.419 370.601 544.015C370.931 551.051 367.721 570.416 374.961 574.161C378.056 575.762 381.718 575.677 385.2 575.555C420.497 574.309 456.53 574.971 492.115 574.665C500.94 574.589 509.768 574.454 518.591 574.213C524.368 574.055 534.005 571.13 539.125 574.439C548.259 580.343 539.87 594.326 549.689 600.762C559.963 607.494 575.717 601.343 586.177 598.042C601.126 593.327 616.177 588.925 631.303 584.817C643.263 581.568 654.287 579.157 666.579 578.347C678.944 577.532 689.874 571.994 701.484 567.977C728.907 558.489 757.239 551.736 785.903 547.277C844.279 538.197 903.857 538.534 962.529 544.474C1062.47 554.593 1160.06 580.307 1258.35 601.063C1322.41 614.592 1386.39 624.254 1451.62 629.709C1512.03 634.762 1578.33 619.12 1636.9 605.143C1696.35 590.955 1752.32 568.555 1811.75 555.32C1846.88 547.498 1882.41 541.513 1918.16 537.369" stroke="#00537C" stroke-width="4.76484" stroke-linecap="round" stroke-linejoin="round"/>
</svg>
    